<svg width="83" height="83" viewBox="0 0 83 83" fill="none" xmlns="http://www.w3.org/2000/svg">
<path fill-rule="evenodd" clip-rule="evenodd" d="M41.5343 0C18.5669 0 0 18.7038 0 41.843C0 60.3393 11.8965 75.9961 28.4 81.5375C30.4634 81.9541 31.2192 80.6372 31.2192 79.5294C31.2192 78.5594 31.1512 75.2343 31.1512 71.7699C19.5973 74.2643 17.1913 66.7819 17.1913 66.7819C15.3346 61.9325 12.5834 60.6862 12.5834 60.6862C8.80184 58.1229 12.8589 58.1229 12.8589 58.1229C17.0536 58.4001 19.2547 62.418 19.2547 62.418C22.9674 68.7909 28.9501 66.9902 31.3569 65.8816C31.7004 63.1797 32.8014 61.3094 33.9704 60.2704C24.7553 59.3004 15.06 55.6982 15.06 39.6257C15.06 35.0535 16.7093 31.3127 19.3227 28.4034C18.9104 27.3645 17.4659 23.0686 19.7359 17.3189C19.7359 17.3189 23.2429 16.2102 31.1503 21.6139C34.5358 20.698 38.0272 20.2321 41.5343 20.2282C45.0413 20.2282 48.6163 20.7136 51.9175 21.6139C59.8258 16.2102 63.3328 17.3189 63.3328 17.3189C65.6027 23.0686 64.1574 27.3645 63.7451 28.4034C66.4274 31.3127 68.0087 35.0535 68.0087 39.6257C68.0087 55.6982 58.3133 59.2307 49.0295 60.2704C50.5428 61.5865 51.8486 64.0801 51.8486 68.0291C51.8486 73.6403 51.7806 78.1436 51.7806 79.5286C51.7806 80.6372 52.5373 81.9541 54.5998 81.5384C71.1033 75.9952 82.9998 60.3393 82.9998 41.843C83.0678 18.7038 64.4329 0 41.5343 0Z" fill="#769ECF"/>
</svg>
